PathFileType	4	(X/Y/Z)	T:\Spectrum_Optical_Capture\Spectrum_Demo_10_05_01_TRUECOMBAT\07_Smooth_Trc\TC_Stairs_1.trc
DataRate	CameraRate	NumFrames	NumMarkers	Units	OrigDataRate	OrigDataStartFrame	OrigNumFrames
60.0	60.0	       6	46	mm	60.0	180	       716
Frame#	Time	HeadTop			ForeHead			LFrontHead			RFrontHead			TopSpine			Sternum			Scapula			LFShoulder			LShoulder			LBicep			LOuterElbow			LHand			LWristPinky			LWristThumb			RFShoulder			RShoulder			RBicep			ROuterElbow			RHand			RWristPinky			RWristThumb			MiddleBack			LowerBack			Root			Pelvis			LBackWaist			RBackWaist			LFrontWaist			RFrontWaist			Bellymarker			LThigh			LOuterKnee			LAnkle			LHeel			LOuterMeta			LToe			RThigh			ROuterKnee			RAnkle			RHeel			ROuterMeta			RToe			Floor1			Floor2			Floor3			Floor4			
		X1	Y1	Z1	X2	Y2	Z2	X3	Y3	Z3	X4	Y4	Z4	X5	Y5	Z5	X6	Y6	Z6	X7	Y7	Z7	X8	Y8	Z8	X9	Y9	Z9	X10	Y10	Z10	X11	Y11	Z11	X12	Y12	Z12	X13	Y13	Z13	X14	Y14	Z14	X15	Y15	Z15	X16	Y16	Z16	X17	Y17	Z17	X18	Y18	Z18	X19	Y19	Z19	X20	Y20	Z20	X21	Y21	Z21	X22	Y22	Z22	X23	Y23	Z23	X24	Y24	Z24	X25	Y25	Z25	X26	Y26	Z26	X27	Y27	Z27	X28	Y28	Z28	X29	Y29	Z29	X30	Y30	Z30	X31	Y31	Z31	X32	Y32	Z32	X33	Y33	Z33	X34	Y34	Z34	X35	Y35	Z35	X36	Y36	Z36	X37	Y37	Z37	X38	Y38	Z38	X39	Y39	Z39	X40	Y40	Z40	X41	Y41	Z41	X42	Y42	Z42	X43	Y43	Z43	X44	Y44	Z44	X45	Y45	Z45	X46	Y46	Z46	

180	2.983	312.53210	1865.39685	-1231.81433	306.47830	1698.92090	-1203.05762	401.51010	1735.40857	-1271.81775	215.52388	1738.17407	-1257.70850	300.26675	1685.54553	-1527.06006	324.69318	1384.59570	-1400.49280	177.82205	1576.06506	-1609.45679	389.44766	1523.31750	-1371.94348	503.08893	1655.93152	-1423.92078	578.86292	1446.49414	-1469.68567	569.87604	1361.48401	-1577.00439	517.50073	1241.46228	-1351.53528	487.96301	1197.04919	-1285.64795	466.90372	1280.19604	-1226.92920	239.81641	1504.31104	-1375.73926	110.84459	1610.20667	-1417.89172	48.90778	1468.54504	-1531.83960	62.67529	1322.71606	-1614.30347	101.96349	1234.19958	-1386.21790	134.60031	1170.64917	-1328.56067	124.73916	1239.31848	-1257.96558	310.03897	1619.31580	-1589.90723	320.38086	1507.39746	-1656.82813	322.65479	1396.75659	-1712.26282	468.72583	1414.44531	-1664.11780	458.85608	1291.42188	-1742.62610	174.30281	1302.89368	-1719.37842	488.23727	1254.98840	-1604.82471	155.00072	1278.19788	-1591.43823	328.09360	1234.07727	-1489.89893	520.68915	1009.37006	-1652.68958	522.49213	857.56702	-1576.27759	485.86115	513.07269	-1708.54810	413.96414	497.51266	-1788.96094	475.99960	380.82266	-1700.45447	412.95828	334.76874	-1601.53711	147.44836	1079.81030	-1495.35510	182.36961	922.62732	-1451.41125	219.85733	603.37219	-1571.80457	292.45013	543.29761	-1678.42114	207.66484	492.79614	-1553.98132	270.22827	492.93808	-1445.44092	4200.61475	32.76729	-4241.20361	-3735.33398	-12.52023	-4194.42578	-3781.76538	-15.51318	4946.55518	4162.77002	21.54776	4908.33496	
181	3.000	311.21280	1877.20703	-1224.39856	305.83011	1710.74805	-1194.85999	400.57245	1747.38721	-1264.21277	214.57108	1749.48914	-1249.25488	295.71445	1695.90759	-1519.17810	325.80441	1394.56030	-1393.94824	170.89960	1584.26611	-1599.81055	390.50394	1533.92346	-1366.19714	501.80460	1667.36890	-1420.01465	579.59900	1459.65869	-1471.56689	571.40570	1378.14233	-1581.24097	521.04547	1246.17810	-1361.49780	492.80890	1198.06494	-1298.12744	469.56830	1277.73816	-1235.72668	241.32782	1512.85010	-1366.24487	109.31583	1616.82361	-1407.38916	48.72559	1468.70056	-1513.89038	66.37566	1318.38708	-1588.15039	108.12460	1250.88330	-1354.71130	142.57693	1193.22412	-1291.94409	130.74390	1266.90405	-1227.74854	304.11975	1629.76819	-1582.09839	313.34650	1517.94873	-1649.86682	315.76465	1407.41064	-1705.83887	462.77454	1427.14331	-1661.76416	452.43814	1303.40283	-1739.15259	168.49707	1312.48792	-1709.93286	486.31924	1269.15637	-1602.43591	153.61641	1285.73181	-1578.44568	328.58737	1244.99194	-1484.24768	521.77472	1026.80872	-1634.57190	527.82440	883.34827	-1544.61487	484.67450	566.45483	-1701.28027	410.66315	561.00439	-1783.57739	475.34042	438.31165	-1705.63550	414.40164	380.32376	-1609.14063	144.96939	1082.63696	-1490.83301	181.31891	924.82922	-1453.35413	218.92964	602.03882	-1573.50476	291.70956	540.71082	-1679.14514	206.85013	491.19489	-1554.49622	269.32687	492.56369	-1445.38049	4200.69434	32.77861	-4241.21191	-3735.34058	-12.52902	-4194.42822	-3781.80957	-15.55948	4946.60400	4162.80908	21.56883	4908.23633	
182	3.017	310.57245	1888.99622	-1217.91406	305.65326	1722.50183	-1187.49878	400.08508	1759.15222	-1257.45386	214.16158	1760.78394	-1241.70825	292.02841	1705.77722	-1512.16223	326.97379	1404.06238	-1387.94812	165.13710	1591.60669	-1590.75024	392.09354	1543.99731	-1361.25891	500.99811	1678.56287	-1416.14392	580.89954	1473.03784	-1474.31689	573.23425	1395.24695	-1586.32397	524.61005	1253.35986	-1371.70264	497.62802	1202.24072	-1310.98828	473.02597	1278.52527	-1245.32910	243.14999	1521.58752	-1357.56763	108.40262	1623.93518	-1397.85144	49.92592	1469.68567	-1496.71655	71.77766	1315.08252	-1561.38281	114.44760	1271.31421	-1323.65735	150.14207	1220.89282	-1255.78967	135.97737	1299.25354	-1199.11060	299.01382	1639.45898	-1575.04248	307.09714	1527.25061	-1643.22449	309.41721	1416.60120	-1699.54895	457.29950	1438.11987	-1658.92920	446.51364	1313.84790	-1735.50610	163.05586	1320.79932	-1700.62512	484.49597	1281.99438	-1599.61023	152.69373	1291.73792	-1564.76746	328.91159	1254.99841	-1478.39307	522.59937	1044.55786	-1616.20093	533.35461	911.67767	-1512.77161	483.08914	625.31342	-1692.33960	406.77798	628.74200	-1776.47766	474.49219	502.50827	-1707.43994	415.62125	435.77600	-1613.62439	142.47066	1084.92358	-1486.07190	180.13605	926.69604	-1455.00317	217.89471	600.55579	-1575.27637	290.89700	538.14557	-1680.10449	206.13910	489.35358	-1555.14893	268.41998	492.19855	-1445.50891	4200.78320	32.81039	-4241.22314	-3735.34448	-12.53932	-4194.45410	-3781.82983	-15.56947	4946.63672	4162.84863	21.58797	4908.21289	
183	3.033	310.58560	1901.00928	-1212.06750	305.87460	1734.44299	-1180.80200	399.98203	1770.97644	-1251.24280	214.25258	1772.36157	-1234.90613	289.32114	1715.79541	-1505.70361	328.00333	1413.71899	-1381.94580	160.78278	1598.84851	-1582.04065	393.88791	1554.15637	-1356.76489	500.55008	1690.12756	-1411.82507	582.87506	1487.53406	-1477.51013	575.36273	1413.70068	-1591.92993	528.00488	1263.67383	-1381.85229	502.08994	1210.19666	-1323.84534	476.81644	1283.35852	-1255.22668	245.02948	1531.22095	-1349.37341	108.05548	1632.33350	-1389.00134	52.45155	1472.42236	-1480.18787	78.73117	1313.96338	-1534.22107	120.67481	1295.64099	-1293.81567	156.91209	1253.55139	-1221.09290	140.25360	1336.11646	-1172.90088	294.94260	1649.11145	-1568.46643	301.77875	1536.16211	-1636.55371	303.65482	1425.26013	-1693.01538	452.46729	1448.28638	-1655.32056	441.11053	1323.85754	-1731.38477	158.02951	1328.54370	-1691.28711	482.47421	1294.09656	-1596.03699	151.72014	1297.42883	-1551.69226	328.93060	1264.50806	-1472.24231	523.11609	1063.46301	-1598.43530	538.80963	942.73773	-1482.27612	481.35529	686.38477	-1680.62109	402.68530	696.99261	-1766.57788	473.54318	569.47198	-1703.91626	416.57611	496.95889	-1612.41284	140.01035	1087.13196	-1481.33020	178.69833	928.53296	-1456.55786	216.75540	599.06525	-1577.05957	289.94092	535.83673	-1681.20569	205.53232	487.35785	-1555.79919	267.52707	491.87805	-1445.81958	4200.85449	32.87224	-4241.23340	-3735.34229	-12.54527	-4194.50098	-3781.80981	-15.53899	4946.62793	4162.87158	21.58908	4908.26709	
184	3.050	311.16293	1913.45691	-1206.46094	306.36346	1746.76404	-1174.54639	400.23648	1783.14136	-1245.21887	214.77884	1784.48511	-1228.66528	287.59552	1726.61438	-1499.49365	328.90524	1424.32971	-1375.44202	157.78470	1606.84265	-1573.38098	395.67572	1565.13403	-1352.26880	500.39032	1702.69873	-1406.80139	585.54071	1503.91248	-1480.63696	577.78259	1434.22229	-1597.54150	531.19006	1277.48621	-1391.76819	506.04602	1222.17664	-1336.23730	480.51056	1292.62427	-1264.93359	246.82112	1542.31921	-1341.23157	108.25122	1642.78162	-1380.43567	55.99190	1477.74561	-1463.94653	86.72499	1316.11951	-1506.97839	126.53291	1323.59021	-1265.83997	162.63637	1290.43188	-1188.82019	143.47935	1376.66663	-1149.77429	291.98138	1659.44543	-1562.08191	297.35568	1545.58557	-1629.59204	298.35382	1434.35229	-1685.90344	448.25983	1458.74634	-1650.89624	436.05353	1334.59387	-1726.60547	153.31671	1336.42725	-1681.60657	480.00479	1306.32971	-1591.60632	150.51865	1303.68152	-1539.56433	328.79184	1274.23645	-1465.63318	523.43372	1084.18579	-1581.90063	543.89838	976.20917	-1454.17859	479.59576	745.84479	-1665.51526	398.57120	761.52167	-1753.41064	472.45413	634.71570	-1693.98169	417.27109	559.10101	-1603.79199	137.75688	1089.67078	-1476.74109	176.99915	930.67975	-1458.21912	215.53339	597.73816	-1578.83948	288.82831	533.95923	-1682.33496	205.02119	485.32077	-1556.32666	266.69943	491.60199	-1446.24670	4200.89697	32.95603	-4241.23926	-3735.33179	-12.54445	-4194.56787	-3781.74707	-15.49132	4946.56299	4162.86768	21.57022	4908.34863	
185	3.067	312.16202	1926.55139	-1200.69165	307.03079	1759.64197	-1168.49500	400.87759	1795.95032	-1239.06287	215.65503	1797.38501	-1222.79468	286.74084	1738.78430	-1493.27869	329.91052	1436.66992	-1368.20447	155.85037	1616.37415	-1564.43542	397.49188	1577.64990	-1347.40186	500.53900	1716.80481	-1401.11243	588.79468	1522.61975	-1483.21948	580.50916	1457.19800	-1602.61084	534.39166	1294.85059	-1401.33093	509.38312	1238.05347	-1347.64636	483.82516	1306.23889	-1274.06982	248.60210	1555.37610	-1332.86914	109.05848	1655.84607	-1371.69446	60.07152	1486.31641	-1447.55627	94.94604	1322.32275	-1480.07129	131.79399	1354.50171	-1240.20508	167.30067	1330.28210	-1159.74536	145.70441	1419.55835	-1130.05164	290.03116	1671.04663	-1555.61145	293.66672	1556.25537	-1622.16748	293.28342	1444.66443	-1678.00122	444.50757	1470.48743	-1645.79065	431.13306	1346.96033	-1721.12085	148.79980	1345.03748	-1671.27234	476.99548	1319.64221	-1586.38220	149.27170	1311.06775	-1528.01746	328.84052	1285.05005	-1458.35779	523.73615	1106.97546	-1566.89697	548.26544	1011.23163	-1429.05811	477.82410	799.93164	-1646.93835	394.59357	818.23499	-1736.95398	471.04126	693.80804	-1677.38733	417.52820	617.73517	-1587.09094	135.96706	1093.03601	-1472.28687	175.11098	933.56940	-1460.17957	214.25368	596.83514	-1580.54541	287.56241	532.74078	-1683.34766	204.60538	483.41809	-1556.67737	265.97900	491.34741	-1446.65601	4200.91455	33.03288	-4241.23828	-3735.31470	-12.53752	-4194.64111	-3781.65649	-15.46223	4946.44922	4162.84131	21.54785	4908.40283	
